<svg width="148" height="21" viewBox="0 0 148 21" fill="none" xmlns="http://www.w3.org/2000/svg">
<path fill-rule="evenodd" clip-rule="evenodd" d="M33.2608 2.17241C33.2608 0.979851 34.2371 0 35.4286 0H49.1694C50.3594 0 51.3373 0.979851 51.3373 2.17241C51.3373 3.36497 50.3594 4.34482 49.1694 4.34482H35.4286C34.2371 4.34482 33.2608 3.36497 33.2608 2.17241ZM40.4914 18.939V8.57817C40.4914 7.44601 41.4685 6.51724 42.6598 6.51724C43.8511 6.51724 44.8298 7.44601 44.8298 8.57817V14.542V18.939C44.8298 20.0709 43.8511 21 42.6598 21C41.4685 21 40.4914 20.0709 40.4914 18.939ZM66.5216 2.70215V18.8277C66.5216 20.0215 67.4986 21 68.6908 21C69.8829 21 70.8599 20.0215 70.8599 18.8277V8.74811V2.70215C70.8599 1.50837 69.8829 0.724182 68.6908 0.724182C67.4986 0.724182 66.5216 1.50837 66.5216 2.70215ZM73.9357 18.845C73.9357 17.6617 74.9441 16.689 76.1738 16.689H81.4311C82.6619 16.689 83.6706 17.6617 83.6706 18.845C83.6706 20.029 82.6619 21 81.4311 21H76.1738C74.9441 21 73.9357 20.029 73.9357 18.845ZM131.597 6.11379V6.17188C131.571 9.5565 133.826 11.1797 138.114 12.1644L138.136 12.1695C138.76 12.3135 140.432 12.6994 141.151 10.9902C141.794 9.46336 140.849 8.55217 139.647 8.0631C137.213 7.43101 136.234 7.01678 136.234 5.76617V5.70776C136.234 4.72332 137.173 3.93999 138.961 3.93999C140.417 3.93999 141.871 4.43221 143.417 5.30205C143.78 5.50506 144.144 5.62125 144.599 5.62125C145.811 5.62125 146.781 4.72332 146.781 3.56396C146.781 2.69412 146.265 2.08729 145.75 1.79619C143.841 0.638721 141.598 0 139.022 0C134.688 0 131.597 2.43491 131.597 6.11379ZM139.894 17.3111C141.732 17.3111 142.859 16.6374 142.922 15.5291C142.923 15.3807 142.929 15.233 142.934 15.0853C142.943 14.8765 142.951 14.6679 142.945 14.4581L142.941 14.3763C142.929 14.0517 142.915 13.7162 143.043 13.4085C143.108 13.2534 143.206 13.1143 143.309 12.9787C143.505 12.7221 143.754 12.5389 144.082 12.4753C144.799 12.3332 145.604 12.6224 146.191 13.0097C146.954 13.515 147.446 14.316 147.446 15.22C147.446 18.5062 145.002 20.4074 141.501 20.9012C141.501 20.9012 139.901 21.1234 137.986 20.9012C136.459 20.7246 133.732 20.0362 131.902 18.7924C131.392 18.4504 131.032 17.8244 131.032 17.141C131.032 16.0015 131.992 15.1188 133.195 15.1188C133.795 15.1188 134.216 15.3181 134.517 15.5176C136.108 16.6277 137.851 17.3111 139.894 17.3111ZM0.195073 18.0838C-0.303226 19.1272 0.186879 20.359 1.28087 20.8166C2.37517 21.2739 3.68159 20.7935 4.17989 19.7497L12.0162 3.20427C12.3566 2.11133 12.0247 0.929375 10.932 0.471765C9.83642 0.014467 8.52969 0.494958 8.0317 1.53837L0.195073 18.0838ZM19.7081 20.8561C20.7849 20.4029 21.267 18.9859 20.7769 17.9519L15.6832 7.02011C15.1927 5.98763 13.9065 5.51146 12.8297 5.96465C11.7529 6.41628 11.2705 7.63855 11.761 8.67258L16.8546 19.6025C17.3448 20.6368 18.631 21.3093 19.7081 20.8561Z" fill="#F53240"/>
<path d="M117.673 18.1523C118.147 19.1748 117.681 20.3819 116.639 20.8303C115.596 21.2784 114.351 20.8076 113.877 19.7848L106.412 3.57142C106.087 2.50042 106.403 1.34219 107.446 0.893766C108.488 0.445647 109.733 0.916494 110.207 1.93897L117.673 18.1523Z" fill="#E6DAB8"/>
<path d="M97.082 17.9519C96.5916 18.9859 97.074 20.403 98.1508 20.8561C99.2279 21.3093 100.514 20.6369 101.005 19.6025L106.098 8.67261C106.588 7.63858 106.106 6.41631 105.029 5.96468C103.952 5.51149 102.666 5.98767 102.176 7.02015L97.082 17.9519Z" fill="#E6DAB8"/>
</svg>
