<svg width="148" height="41" viewBox="0 0 148 41" fill="none" xmlns="http://www.w3.org/2000/svg">
<path fill-rule="evenodd" clip-rule="evenodd" d="M9.37357 26.8318C9.12482 26.5713 7.98196 25.3904 7.53323 24.8958C7.20131 24.5298 7.14291 24.212 7.14291 24.0387C7.14291 23.5166 7.56047 23.0946 8.07779 23.0946C8.24513 23.0946 8.39384 23.1393 8.52608 23.215C8.15338 22.9914 7.84811 22.8996 7.29132 22.9375C6.19463 23.0123 5.40598 23.5828 4.94706 23.9638C3.7139 24.9875 1.7904 26.6263 0.695754 27.6713C-0.119989 28.4499 -0.18582 29.5527 0.328298 30.2193C0.690366 30.6886 1.91799 32.1545 2.42235 32.7565C3.38228 33.9018 4.73719 34.9294 6.44412 34.9294C8.83237 34.9294 10.7905 33.0803 10.994 30.7238C11.0072 30.5912 11.0158 30.4543 11.0158 30.3165C11.0158 29.1533 10.5313 28.0639 9.37357 26.8318Z" fill="white"/>
<path fill-rule="evenodd" clip-rule="evenodd" d="M25.4179 31.1517C23.6202 32.9667 20.7072 32.9667 18.9094 31.1517L3.53218 15.6307C1.73553 13.8195 1.73553 10.878 3.53218 9.0655C5.32868 7.25225 8.24065 7.25225 10.0393 9.0655L25.4179 24.5839C27.2122 26.3976 27.2122 29.339 25.4179 31.1517Z" fill="white"/>
<path fill-rule="evenodd" clip-rule="evenodd" d="M22.3333 16.3586C22.4721 16.5181 22.8832 16.9964 22.8832 16.9964C22.9795 17.1158 23.0638 17.2466 23.1435 17.3827C23.2211 17.5212 23.2737 17.679 23.2737 17.8497C23.2737 18.3727 22.8536 18.7958 22.3378 18.7958C22.1735 18.7958 22.0228 18.7482 21.8904 18.6756C22.2632 18.898 22.5717 18.989 23.125 18.9527C24.0326 18.8952 25.1873 18.1404 25.4714 17.9263C26.739 16.9573 28.3735 15.5331 29.7229 14.2177L29.7261 14.1995C30.1538 13.8603 30.4348 13.3386 30.4348 12.7484C30.4348 12.2951 30.2609 12.0014 30.0892 11.6707C30.0892 11.6707 29.5244 10.7626 29.2845 10.4363C28.2951 9.09064 26.9695 8.26074 25.2604 8.26074C22.8746 8.26074 20.601 10.1728 20.708 12.5355C20.7896 14.3369 21.6301 15.5474 22.3333 16.3586Z" fill="white"/>
<path fill-rule="evenodd" clip-rule="evenodd" d="M22.0766 18.6765C22.2985 18.6337 22.4299 18.3703 22.3256 18.1269C22.2161 17.8712 21.5062 17.0899 21.5062 17.0899C20.326 15.725 19.686 14.2557 19.6103 12.5849C19.5519 11.2962 20.0404 9.97216 20.9783 8.98043C21.6912 8.22741 22.6629 7.76572 23.7478 7.48321L17.6686 1.36203C15.8721 -0.45401 12.9602 -0.45401 11.1624 1.36203C9.36708 3.17293 9.36708 6.11225 11.1624 7.92667L21.5004 18.3349C21.7914 18.6515 21.9432 18.7019 22.0766 18.6765Z" fill="white"/>
<path fill-rule="evenodd" clip-rule="evenodd" d="M17.7941 32.2915C17.7628 32.2599 9.11136 23.5367 8.99324 23.4089C8.86857 23.2738 8.7222 23.0983 8.51597 23.1484C8.10774 23.2476 8.21668 23.7073 8.37747 23.9714C8.55734 24.2667 8.84265 24.4751 9.07728 24.7221C9.38269 25.0432 9.69 25.3626 9.99672 25.6823C9.99672 25.6823 10.2759 25.974 10.2813 25.9794C11.6078 27.3902 12.2259 28.7401 12.2259 30.2274C12.2259 30.402 12.215 30.5768 12.1987 30.7437C11.9917 33.1465 10.3464 35.0528 8.15594 35.6965L11.2903 38.86C13.0858 40.6709 15.9986 40.6709 17.7941 38.86C19.5919 37.0441 19.5919 34.1058 17.7941 32.2915Z" fill="white"/>
<path fill-rule="evenodd" clip-rule="evenodd" d="M112.959 27.9321V28.0091C112.959 28.6487 112.442 29.1674 111.804 29.1674H103.409C102.77 29.1674 102.253 28.6487 102.253 28.0091V12.3044C102.253 11.6646 102.77 11.146 103.409 11.146H111.675C112.313 11.146 112.83 11.6646 112.83 12.3044V12.4081C112.83 13.0481 112.313 13.5667 111.675 13.5667H104.925C104.811 13.5667 104.718 13.6595 104.718 13.7739V18.8941C104.718 19.0086 104.811 19.1016 104.925 19.1016H110.006C110.644 19.1016 111.161 19.6201 111.161 20.2597V20.3359C111.161 20.9758 110.644 21.4943 110.006 21.4943H104.925C104.811 21.4943 104.718 21.587 104.718 21.7015V26.5665C104.718 26.681 104.811 26.7738 104.925 26.7738H111.804C112.442 26.7738 112.959 27.2924 112.959 27.9321Z" fill="white"/>
<path fill-rule="evenodd" clip-rule="evenodd" d="M123.531 23.3818V22.3C123.25 20.318 121.604 18.7998 119.629 18.7998C117.472 18.7998 115.702 20.6264 115.702 22.8145C115.702 25.055 117.472 26.8817 119.629 26.8817C121.604 26.8817 123.25 25.3638 123.531 23.3818ZM125.867 17.4861V28.067C125.867 28.7065 125.35 29.2253 124.712 29.2253H124.686C124.048 29.2253 123.531 28.7065 123.531 28.067V27.7842C122.478 28.6851 121.145 29.2253 119.629 29.2253C116.24 29.2253 113.467 26.3941 113.467 22.8145C113.467 19.3148 116.24 16.4564 119.629 16.4564C121.145 16.4564 122.478 16.997 123.531 17.8978V17.4861C123.531 16.8462 124.048 16.3276 124.686 16.3276H124.712C125.35 16.3276 125.867 16.8462 125.867 17.4861Z" fill="white"/>
<path fill-rule="evenodd" clip-rule="evenodd" d="M146.846 29.1723H146.821C146.184 29.1723 145.666 28.6538 145.666 28.0139V22.6295C145.666 21.4653 145.207 20.3135 144.306 19.5811C143.657 19.0548 142.849 18.7471 141.969 18.7471C141.146 18.7471 140.414 19.0042 139.815 19.4545C138.906 20.1364 138.45 21.272 138.45 22.4103V28.0404C138.45 28.6799 137.933 29.1987 137.295 29.1987H137.271C136.633 29.1987 136.115 28.6799 136.115 28.0404V17.4861C136.115 16.8462 136.633 16.3276 137.271 16.3276H137.295C137.933 16.3276 138.45 16.8462 138.45 17.4861V17.7271C139.357 16.8534 140.659 16.3276 141.969 16.3276C145.178 16.3276 147.72 19.0301 148 22.3252V28.0139C148 28.6538 147.483 29.1723 146.846 29.1723Z" fill="white"/>
<path fill-rule="evenodd" clip-rule="evenodd" d="M132.963 16.6232C132.008 16.8535 131.235 17.1679 130.4 18.0158V17.4861C130.4 16.8463 129.882 16.3276 129.245 16.3276C128.607 16.3276 128.089 16.8463 128.089 17.4861V28.067C128.089 28.7068 128.607 29.2253 129.245 29.2253C129.882 29.2253 130.4 28.7068 130.4 28.067V22.7631C130.566 20.9893 131.621 19.4524 133.2 18.9282C133.2 18.9282 134.344 18.7127 134.38 17.7297C134.408 16.9634 133.706 16.4439 132.963 16.6232Z" fill="white"/>
<path fill-rule="evenodd" clip-rule="evenodd" d="M53.6669 18.4422C55.2509 19.0262 56.4074 19.741 57.1388 20.5909C57.9015 21.4721 58.2845 22.5464 58.2845 23.8094C58.2845 25.3416 57.7439 26.6112 56.6667 27.6186C55.3789 28.8154 53.5166 29.4146 51.0783 29.4146C50.2413 29.4146 49.3989 29.3358 48.5854 29.1333C47.8331 28.946 46.9565 28.6787 46.4723 28.0311C46.0267 27.4354 45.9742 26.5519 46.3487 25.9079C46.7843 25.1589 47.7224 24.9293 48.5305 25.0257C49.9857 25.1997 51.6072 26.1471 53.0065 25.183C53.7359 24.7044 53.7154 23.5665 53.0808 23.0377C52.6829 22.7132 51.9855 22.3746 50.9923 22.0257C47.7129 20.8522 46.0728 19.0704 46.0728 16.683C46.0728 15.071 46.7033 13.7629 47.9662 12.766C49.2178 11.7577 50.8586 11.2554 52.8811 11.2554C52.9892 11.2554 53.0974 11.2577 53.2054 11.2615C54.2849 11.3019 55.5182 11.4669 56.4341 12.0852C58.1986 13.276 56.7345 15.9009 54.7846 15.3603C53.6528 15.0465 51.4952 14.4714 50.7684 15.8472C50.46 16.4312 50.7292 17.1786 51.2573 17.5329C51.6403 17.79 52.5294 18.0115 53.6669 18.4422Z" fill="white"/>
<path fill-rule="evenodd" clip-rule="evenodd" d="M73.5365 14.8709C73.0858 15.3206 72.528 15.5458 71.8602 15.5458C71.1939 15.5458 70.6266 15.3109 70.1621 14.846C69.7138 14.3954 69.4901 13.8577 69.4901 13.2294C69.4901 12.5984 69.7138 12.0645 70.1621 11.6231C70.6266 11.1569 71.1939 10.9253 71.8602 10.9253C72.528 10.9253 73.0907 11.1569 73.5462 11.6231C74.0042 12.0645 74.2319 12.5984 74.2319 13.2294C74.2319 13.8577 73.9992 14.4048 73.5365 14.8709Z" fill="white"/>
<path fill-rule="evenodd" clip-rule="evenodd" d="M65.9309 16.3609H64.9429V15.4101C64.9429 14.1733 63.9109 13.1784 62.6632 13.2438C61.4935 13.3053 60.6161 14.3581 60.6161 15.5328V16.3609H60.2352C59.3352 16.3609 58.6058 17.0925 58.6058 17.9947V18.057C58.6058 18.9592 59.3352 19.6907 60.2352 19.6907H60.6161V22.9005C60.6239 24.3056 60.7876 25.62 61.137 26.5771C61.3162 27.068 61.5896 27.6664 62.0949 28.1382C63.379 29.3371 65.8662 29.9396 66.7019 27.9C67.0821 26.9723 66.7058 26.1428 65.9358 25.5882C65.7423 25.4489 65.5522 25.3055 65.4098 25.1095C64.9982 24.543 64.9221 23.7692 64.9257 23.0903L64.9418 19.6907H65.9309C66.8308 19.6907 67.5603 18.9592 67.5603 18.057V17.9947C67.5603 17.0925 66.8308 16.3609 65.9309 16.3609Z" fill="white"/>
<path fill-rule="evenodd" clip-rule="evenodd" d="M82.7483 29.396C80.8509 29.396 79.3301 28.8636 78.0992 27.7695C76.5758 26.4132 75.8669 24.7769 75.8669 22.6194C75.8669 20.6702 76.5767 18.956 77.8648 17.7937C79.1766 16.6105 80.5153 16.106 82.3433 16.106C82.5932 16.106 82.8505 16.115 83.1166 16.1322C83.5881 16.1624 85.9535 16.3974 86.2466 18.0781C86.3652 18.7605 86.058 19.3705 85.4642 19.6326C85.2567 19.7244 85.0329 19.7686 84.7781 19.7686C84.453 19.7686 84.1287 19.6965 83.816 19.6276C83.5276 19.5638 83.2555 19.503 83.0032 19.503C81.9283 19.503 81.2389 19.784 80.624 20.4721C80.0506 21.1141 79.8252 21.9969 79.9149 23.2494C80.044 25.0371 81.4578 26.002 82.723 26.002C82.9592 26.002 83.1944 25.97 83.4214 25.9079C83.4681 25.8947 83.5333 25.8734 83.6125 25.8481C83.918 25.7489 84.4308 25.5817 84.8721 25.5654H84.8752C85.5956 25.5654 86.1323 25.9241 86.3822 26.5245C86.6291 27.1174 86.518 27.7751 86.0988 28.2001C85.3532 28.9553 83.9573 29.3722 82.9639 29.3934L82.7483 29.396Z" fill="white"/>
<path fill-rule="evenodd" clip-rule="evenodd" d="M97.501 29.2318C96.9285 29.2318 96.4016 28.9697 96.0545 28.5135L92.7532 24.1646C92.7139 24.113 92.6542 24.0803 92.5841 24.0721L92.5792 24.0711C92.4984 24.0711 92.4395 24.0966 92.3962 24.1399L92.2354 24.3038L92.2148 27.3767C92.2148 28.3999 91.385 29.2318 90.3648 29.2318H89.9197C88.9003 29.2318 88.0704 28.3999 88.0704 27.3767V12.7803C88.0704 11.7574 88.9003 10.9253 89.9197 10.9253H90.3648C91.385 10.9253 92.2148 11.7574 92.2148 12.7803V18.5878C92.2148 18.6068 92.2491 18.6519 92.2622 18.6658C92.2762 18.6789 92.321 18.7133 92.3398 18.7133C92.3725 18.7133 92.4035 18.701 92.4271 18.6772L95.7842 15.3111C96.1272 14.9664 96.583 14.7771 97.0673 14.7771C97.5517 14.7771 98.0074 14.9664 98.3506 15.3111L98.4927 15.4537C98.8366 15.7975 99.0252 16.2546 99.0252 16.7402C99.0252 17.2268 98.8366 17.6839 98.4935 18.0269L95.469 21.0589C95.3865 21.1424 95.3774 21.2767 95.4477 21.371L99.1037 26.1869C99.3969 26.5734 99.5235 27.0516 99.459 27.5332C99.3937 28.0157 99.1453 28.4431 98.759 28.738L98.598 28.86C98.2802 29.1032 97.9006 29.2318 97.501 29.2318Z" fill="white"/>
<path fill-rule="evenodd" clip-rule="evenodd" d="M71.8968 29.4072C70.6913 29.4072 69.7103 28.4236 69.7103 27.2147V18.8503C69.7103 17.6415 70.6913 16.6577 71.8968 16.6577H72.1229C73.3286 16.6577 74.3097 17.6415 74.3097 18.8503V27.2147C74.3097 28.4236 73.3286 29.4072 72.1229 29.4072H71.8968Z" fill="white"/>
</svg>
